<?xml version="1.0" encoding="UTF-8"?><svg id="Layer_1" xmlns="http://www.w3.org/2000/svg" viewBox="0 0 1920 1080"><defs><style>.cls-1{stroke-linecap:round;}.cls-1,.cls-2,.cls-3{fill:none;stroke:#000;stroke-width:50px;}.cls-1,.cls-3{stroke-linejoin:round;}.cls-4{fill:#fff;}.cls-2{stroke-miterlimit:10;}</style></defs><circle class="cls-2" cx="351" cy="466" r="200.5"/><circle class="cls-2" cx="739.5" cy="466.5" r="200.5"/><circle class="cls-2" cx="1128.5" cy="466.5" r="200.5"/><path class="cls-3" d="M1519,453l187.72,68.58c-28.91,78.76-104.33,131.42-188.22,131.42-109.99,0-200.5-90.51-200.5-200.5s90.51-200.5,200.5-200.5c58.76,0,114.64,25.83,152.71,70.58l-152.21,130.42Z"/><path class="cls-4" d="M513.54,400s26.55,58,2.12,127c-24.43,69-2.12-127-2.12-127Z"/><path class="cls-4" d="M574,408s-23,54.02,0,118.51,0-118.51,0-118.51Z"/><path class="cls-4" d="M899,393s36,69.57,0,148.19,0-148.19,0-148.19Z"/><path class="cls-4" d="M970,391s-41,79,4,160-4-160-4-160Z"/><path class="cls-4" d="M1294,408s21,50,3,108-3-108-3-108Z"/><path class="cls-4" d="M1352,397s-22,60,3,120-3-120-3-120Z"/><path class="cls-1" d="M934,403V142v261Z"/><path d="M412.35,774.65c4.2,1.99,7.47,4.8,9.81,8.41,2.34,3.61,3.52,7.73,3.52,12.33s-1.17,8.67-3.52,12.3-5.62,6.46-9.81,8.47c-4.2,2.01-8.92,3.02-14.15,3.02s-10.01-1-14.21-3.02c-4.2-2.01-7.48-4.83-9.84-8.47-2.36-3.63-3.54-7.73-3.54-12.3s1.18-8.72,3.54-12.33c2.36-3.61,5.66-6.42,9.9-8.41,4.24-1.99,8.95-2.99,14.15-2.99s9.95,1,14.15,2.99ZM416.78,852.17h-24.55v14.88h-10.72v-22.91h24.43v-8.79h-24.49v-8.44h35.33v25.25ZM389.65,782.67c-2.54,1.21-4.53,2.92-5.98,5.13-1.45,2.21-2.17,4.74-2.17,7.59s.72,5.39,2.17,7.62c1.44,2.23,3.44,3.96,5.98,5.21,2.54,1.25,5.39,1.88,8.55,1.88s6.07-.62,8.61-1.88c2.54-1.25,4.53-2.99,5.98-5.21,1.44-2.23,2.17-4.77,2.17-7.62s-.72-5.38-2.17-7.59c-1.45-2.21-3.44-3.92-5.98-5.13-2.54-1.21-5.41-1.8-8.61-1.76-3.16-.04-6.02.55-8.55,1.76ZM408.43,861.83c4.98-.27,10.07-.88,15.26-1.82l1.11,8.32c-5.31,1.02-10.49,1.67-15.53,1.96s-12.09.44-21.15.44h-6.62v-8.5h6.62c8.55,0,15.32-.14,20.3-.41ZM455.39,871.38h-10.9v-35.45h-23.26v-9.02h34.16v44.47ZM455.39,822.52h-10.96v-55.49h10.96v55.49Z"/><path d="M567.89,857.85h-95.74v-9.14h95.74v9.14ZM550.14,786.19h-67.91v-9.02h67.91v9.02ZM519.55,853.46h-10.96v-41.78h10.96v41.78ZM556.88,803.09c-.16,4.2-.51,9.16-1.05,14.88-.55,5.72-1.43,11.9-2.64,18.54l-11.31-1.23c1.29-6.29,2.23-12.23,2.81-17.81.59-5.59.95-10.54,1.08-14.85.14-4.32.21-9.37.21-15.15v-10.31h11.13v10.31c0,6.21-.08,11.42-.23,15.62Z"/><path d="M701.02,824.98h-95.86v-9.32h95.86v9.32ZM689.53,844.02h-61.41v22.73h-11.02v-31.76h72.42v9.02ZM690.47,870.68h-73.36v-9.08h73.36v9.08ZM688.95,779.33h-60.47v22.73h-11.13v-31.99h71.6v9.26ZM690.06,805.76h-72.71v-8.96h72.71v8.96Z"/><path d="M804.84,828.85h-96.09v-8.91h96.09v8.91ZM731.9,863.06h-11.13v-24.2h11.13v24.2ZM794.53,869.57h-73.77v-9.14h73.77v9.14ZM732.54,802.3h-11.07v-31.41h11.07v31.41ZM793.95,806.64h-72.48v-8.79h72.48v8.79Z"/><path d="M937.97,858.96h-96.09v-9.2h96.09v9.2ZM909.73,776.9c5.9,2.32,10.5,5.61,13.8,9.84,3.3,4.24,4.95,9.11,4.95,14.62s-1.65,10.49-4.95,14.71c-3.3,4.22-7.9,7.49-13.8,9.81-5.9,2.32-12.56,3.49-19.98,3.49s-14.13-1.16-20.01-3.49c-5.88-2.32-10.48-5.6-13.8-9.81-3.32-4.22-4.98-9.12-4.98-14.71s1.66-10.38,4.98-14.62c3.32-4.24,7.92-7.52,13.8-9.84,5.88-2.32,12.55-3.49,20.01-3.49s14.08,1.16,19.98,3.49ZM875.33,784.78c-4.26,1.56-7.57,3.78-9.93,6.65-2.36,2.87-3.54,6.18-3.54,9.93s1.18,7.13,3.54,10.02c2.36,2.89,5.65,5.12,9.87,6.68,4.22,1.56,9.04,2.36,14.47,2.4,5.43-.04,10.24-.84,14.44-2.4,4.2-1.56,7.49-3.79,9.87-6.68,2.38-2.89,3.57-6.23,3.57-10.02s-1.19-7.06-3.57-9.93c-2.38-2.87-5.68-5.09-9.9-6.65-4.22-1.56-9.02-2.34-14.41-2.34s-10.16.78-14.41,2.34ZM895.14,851.81h-10.9v-25.61h10.9v25.61Z"/><path d="M1002.6,786.01h-39.14v54.61h-11.19v-63.81h50.33v9.2ZM989.21,836.35c7.25-.43,14.52-1.29,21.83-2.58l1.05,9.26c-7.42,1.33-14.84,2.24-22.27,2.72-7.42.49-17.03.75-28.83.79h-8.73v-9.55h8.73c11.56,0,20.97-.21,28.21-.64ZM1032.6,872.32h-11.19v-105.29h11.19v105.29Z"/><path d="M1145.39,858.96h-96.09v-9.2h96.09v9.2ZM1117.15,776.9c5.9,2.32,10.5,5.61,13.8,9.84,3.3,4.24,4.95,9.11,4.95,14.62s-1.65,10.49-4.95,14.71c-3.3,4.22-7.9,7.49-13.8,9.81-5.9,2.32-12.56,3.49-19.98,3.49s-14.13-1.16-20.01-3.49c-5.88-2.32-10.48-5.6-13.8-9.81-3.32-4.22-4.98-9.12-4.98-14.71s1.66-10.38,4.98-14.62c3.32-4.24,7.92-7.52,13.8-9.84,5.88-2.32,12.55-3.49,20.01-3.49s14.08,1.16,19.98,3.49ZM1082.75,784.78c-4.26,1.56-7.57,3.78-9.93,6.65-2.36,2.87-3.54,6.18-3.54,9.93s1.18,7.13,3.54,10.02c2.36,2.89,5.65,5.12,9.87,6.68,4.22,1.56,9.04,2.36,14.47,2.4,5.43-.04,10.24-.84,14.44-2.4,4.2-1.56,7.49-3.79,9.87-6.68,2.38-2.89,3.57-6.23,3.57-10.02s-1.19-7.06-3.57-9.93c-2.38-2.87-5.68-5.09-9.9-6.65-4.22-1.56-9.02-2.34-14.41-2.34s-10.16.78-14.41,2.34ZM1102.56,851.81h-10.9v-25.61h10.9v25.61Z"/><path d="M1248.75,827.03h-95.74v-8.96h95.74v8.96ZM1236.97,872.03h-11.13v-24.79h-62.23v-9.02h73.36v33.81ZM1176.62,780.86h48.63v-11.31h11.02v39.73h-70.66v-39.73h11.02v11.31ZM1225.25,800.43v-11.25h-48.63v11.25h48.63ZM1206.27,841.79h-10.96v-17.46h10.96v17.46Z"/><path d="M1266.15,886.38h-9.9l6.21-32.34h13.18l-9.49,32.34Z"/><path d="M1412.81,858.96h-96.09v-9.2h96.09v9.2ZM1384.57,776.9c5.9,2.32,10.5,5.61,13.8,9.84,3.3,4.24,4.95,9.11,4.95,14.62s-1.65,10.49-4.95,14.71c-3.3,4.22-7.9,7.49-13.8,9.81-5.9,2.32-12.56,3.49-19.98,3.49s-14.13-1.16-20.01-3.49c-5.88-2.32-10.48-5.6-13.8-9.81-3.32-4.22-4.98-9.12-4.98-14.71s1.66-10.38,4.98-14.62c3.32-4.24,7.92-7.52,13.8-9.84,5.88-2.32,12.55-3.49,20.01-3.49s14.08,1.16,19.98,3.49ZM1350.18,784.78c-4.26,1.56-7.57,3.78-9.93,6.65-2.36,2.87-3.54,6.18-3.54,9.93s1.18,7.13,3.54,10.02c2.36,2.89,5.65,5.12,9.87,6.68,4.22,1.56,9.04,2.36,14.47,2.4,5.43-.04,10.24-.84,14.44-2.4,4.2-1.56,7.49-3.79,9.87-6.68,2.38-2.89,3.57-6.23,3.57-10.02s-1.19-7.06-3.57-9.93c-2.38-2.87-5.68-5.09-9.9-6.65-4.22-1.56-9.02-2.34-14.41-2.34s-10.16.78-14.41,2.34ZM1369.98,851.81h-10.9v-25.61h10.9v25.61Z"/><path d="M1516.17,827.91h-95.74v-8.96h95.74v8.96ZM1504.57,872.73h-11.02v-26.66h-62.52v-8.91h73.54v35.57ZM1504.51,780.27h-61.05v22.85h-11.02v-31.82h72.07v8.96ZM1505.45,807.34h-73.01v-9.02h73.01v9.02ZM1473.81,822.34h-11.07v-21.09h11.07v21.09Z"/></svg>