<?xml version="1.0" encoding="UTF-8"?><svg id="Layer_1" xmlns="http://www.w3.org/2000/svg" viewBox="0 0 1920 1920"><defs><style>.cls-1{stroke-linecap:round;}.cls-1,.cls-2,.cls-3{fill:none;stroke:#000;stroke-width:50px;}.cls-1,.cls-3{stroke-linejoin:round;}.cls-2{stroke-miterlimit:10;}</style></defs><circle class="cls-2" cx="729.2" cy="529.3" r="227.62"/><circle class="cls-2" cx="1184.24" cy="530.87" r="227.62"/><circle class="cls-2" cx="736.22" cy="1008.91" r="227.62"/><path class="cls-3" d="M1191.53,993.58l213.11,77.86c-32.82,89.41-118.44,149.19-213.68,149.19-124.87,0-227.62-102.75-227.62-227.62s102.75-227.62,227.62-227.62c66.7,0,130.14,29.32,173.36,80.12l-172.79,148.06Z"/><path class="cls-1" d="M1411.04,554.56V150.49v404.07Z"/><path d="M420.82,1390.79c4.26,2.05,7.59,4.91,9.99,8.58,2.4,3.67,3.6,7.83,3.6,12.48s-1.2,8.81-3.6,12.48c-2.4,3.67-5.73,6.54-9.99,8.61-4.26,2.07-9.04,3.11-14.36,3.11s-10.17-1.03-14.44-3.11c-4.28-2.07-7.63-4.94-10.05-8.61-2.42-3.67-3.63-7.83-3.63-12.48s1.21-8.81,3.63-12.48c2.42-3.67,5.78-6.53,10.08-8.58,4.3-2.05,9.1-3.08,14.41-3.08s10.1,1.03,14.36,3.08ZM425.27,1469.46h-23.5v14.24h-12.6v-23.38h23.32v-7.56h-23.32v-9.73h36.09v26.43ZM416.8,1477.72c4.98-.27,9.99-.9,15.03-1.88l1.23,9.67c-5.16,1.02-10.27,1.66-15.35,1.93-5.08.27-12.3.41-21.68.41h-6.86v-9.73h6.86c8.87,0,15.79-.14,20.77-.41ZM398.49,1400.08c-2.34,1.09-4.17,2.66-5.48,4.69-1.31,2.03-1.96,4.39-1.96,7.09s.65,5.02,1.96,7.09c1.31,2.07,3.14,3.67,5.51,4.8,2.36,1.13,5.01,1.7,7.94,1.7s5.57-.57,7.91-1.7c2.34-1.13,4.18-2.73,5.51-4.8,1.33-2.07,1.99-4.43,1.99-7.09s-.66-5.06-1.99-7.09c-1.33-2.03-3.15-3.59-5.48-4.69-2.32-1.09-4.97-1.62-7.94-1.58-2.97-.04-5.62.49-7.97,1.58ZM464.47,1488.62h-12.77v-35.1h-22.21v-10.49h34.98v45.59ZM464.47,1438.7h-12.95v-55.43h12.95v55.43Z"/><path d="M576.62,1475.49h-96.45v-10.61h96.45v10.61ZM558.28,1403.42h-68.14v-10.49h68.14v10.49ZM528.63,1470.34h-12.83v-42.36h12.83v42.36ZM566.3,1418.98c-.16,4.32-.53,9.4-1.11,15.23-.59,5.84-1.5,12.18-2.75,19.01l-13.18-1.41c1.29-6.41,2.25-12.45,2.87-18.13.62-5.68,1-10.73,1.11-15.15.12-4.41.18-9.53.18-15.35v-10.25h13.12v10.25c0,6.21-.08,11.48-.23,15.79Z"/><path d="M709.04,1442.27h-96.62v-10.72h96.62v10.72ZM697.5,1461.61h-60.41v21.62h-12.89v-32.05h73.3v10.43ZM698.43,1487.86h-74.24v-10.55h74.24v10.55ZM697.09,1396.86h-59.65v21.62h-12.95v-32.34h72.6v10.72ZM698.14,1422.82h-73.65v-10.43h73.65v10.43Z"/><path d="M812.81,1446.14h-96.8v-10.31h96.8v10.31ZM740.68,1479.12h-13.12v-23.55h13.12v23.55ZM802.55,1486.68h-75v-10.55h75v10.55ZM741.44,1418.42h-13.01v-31.29h13.01v31.29ZM801.91,1423.52h-73.48v-10.25h73.48v10.25Z"/><path d="M945.17,1476.37h-96.8v-10.72h96.8v10.72ZM916.84,1392.76c6,2.38,10.69,5.74,14.09,10.08s5.1,9.32,5.1,14.94-1.7,10.84-5.1,15.18-8.09,7.69-14.06,10.05c-5.98,2.36-12.73,3.54-20.27,3.54s-14.31-1.18-20.3-3.54c-6-2.36-10.68-5.71-14.06-10.05-3.38-4.34-5.07-9.39-5.07-15.18s1.69-10.61,5.07-14.94c3.38-4.34,8.07-7.7,14.06-10.08,6-2.38,12.76-3.57,20.3-3.57s14.25,1.19,20.24,3.57ZM882.77,1401.9c-4.06,1.49-7.22,3.59-9.46,6.33-2.25,2.73-3.37,5.92-3.37,9.55s1.12,7.01,3.37,9.79c2.25,2.77,5.38,4.89,9.4,6.36,4.02,1.46,8.65,2.22,13.89,2.26,5.23-.04,9.85-.79,13.86-2.26,4-1.46,7.13-3.58,9.38-6.36,2.25-2.77,3.37-6.04,3.37-9.79s-1.12-6.82-3.37-9.55c-2.25-2.73-5.38-4.84-9.4-6.33-4.02-1.48-8.63-2.23-13.83-2.23s-9.77.74-13.83,2.23ZM902.93,1467.88h-12.83v-25.08h12.83v25.08Z"/><path d="M1009.68,1403.54h-38.03v53.38h-13.01v-64.04h51.04v10.66ZM996.29,1452.08c7.13-.41,14.23-1.24,21.3-2.49l1.23,10.72c-7.15,1.33-14.42,2.23-21.83,2.7-7.4.47-17.22.72-29.44.76h-8.91v-11.07h8.91c12.03,0,21.61-.21,28.74-.62ZM1040.15,1489.38h-13.18v-106.11h13.18v106.11Z"/><path d="M1152.59,1476.37h-96.8v-10.72h96.8v10.72ZM1124.26,1392.76c6,2.38,10.69,5.74,14.09,10.08s5.1,9.32,5.1,14.94-1.7,10.84-5.1,15.18-8.09,7.69-14.06,10.05c-5.98,2.36-12.74,3.54-20.27,3.54s-14.31-1.18-20.3-3.54c-6-2.36-10.68-5.71-14.06-10.05-3.38-4.34-5.07-9.39-5.07-15.18s1.69-10.61,5.07-14.94c3.38-4.34,8.07-7.7,14.06-10.08,6-2.38,12.76-3.57,20.3-3.57s14.25,1.19,20.24,3.57ZM1090.19,1401.9c-4.06,1.49-7.22,3.59-9.46,6.33-2.25,2.73-3.37,5.92-3.37,9.55s1.12,7.01,3.37,9.79c2.25,2.77,5.38,4.89,9.4,6.36,4.02,1.46,8.65,2.22,13.89,2.26,5.23-.04,9.85-.79,13.86-2.26,4-1.46,7.13-3.58,9.38-6.36,2.25-2.77,3.37-6.04,3.37-9.79s-1.12-6.82-3.37-9.55c-2.25-2.73-5.38-4.84-9.4-6.33-4.02-1.48-8.63-2.23-13.83-2.23s-9.77.74-13.83,2.23ZM1110.35,1467.88h-12.83v-25.08h12.83v25.08Z"/><path d="M1255.95,1444.61h-96.45v-10.37h96.45v10.37ZM1244.18,1489.09h-13.07v-23.79h-60.94v-10.49h74v34.28ZM1184.82,1396.39h45.7v-10.55h12.95v40.49h-71.48v-40.49h12.83v10.55ZM1230.52,1416.02v-9.96h-45.7v9.96h45.7ZM1214,1458.73h-12.83v-16.93h12.83v16.93Z"/><path d="M1274,1503.27h-11.13l6.04-32.87h14.94l-9.84,32.87Z"/><path d="M1419.2,1476.37h-96.8v-10.72h96.8v10.72ZM1390.87,1392.76c6,2.38,10.69,5.74,14.09,10.08s5.1,9.32,5.1,14.94-1.7,10.84-5.1,15.18-8.09,7.69-14.06,10.05c-5.98,2.36-12.74,3.54-20.27,3.54s-14.31-1.18-20.3-3.54c-6-2.36-10.68-5.71-14.06-10.05-3.38-4.34-5.07-9.39-5.07-15.18s1.69-10.61,5.07-14.94c3.38-4.34,8.07-7.7,14.06-10.08,6-2.38,12.76-3.57,20.3-3.57s14.25,1.19,20.24,3.57ZM1356.79,1401.9c-4.06,1.49-7.22,3.59-9.46,6.33-2.25,2.73-3.37,5.92-3.37,9.55s1.12,7.01,3.37,9.79c2.25,2.77,5.38,4.89,9.4,6.36,4.02,1.46,8.65,2.22,13.89,2.26,5.23-.04,9.85-.79,13.86-2.26,4-1.46,7.13-3.58,9.38-6.36,2.25-2.77,3.37-6.04,3.37-9.79s-1.12-6.82-3.37-9.55c-2.25-2.73-5.38-4.84-9.4-6.33-4.02-1.48-8.63-2.23-13.83-2.23s-9.77.74-13.83,2.23ZM1376.95,1467.88h-12.83v-25.08h12.83v25.08Z"/><path d="M1522.55,1445.49h-96.45v-10.43h96.45v10.43ZM1510.95,1489.61h-12.83v-25.49h-61.35v-10.31h74.18v35.8ZM1510.95,1397.97h-60v21.74h-12.95v-32.17h72.95v10.43ZM1512.01,1424.52h-74v-10.49h74v10.49ZM1480.78,1438.75h-13.01v-21.21h13.01v21.21Z"/></svg>